# xmcd
#
# Track frame offsets: 
#        182
#        15885
#        35407
#        49060
#        68087
#        87905
#        121565
#        139345
#        152410
#        162062
#        177317
#        193760
#        211352
#        223400
#        237102
#        248802
#        266852
#        280280
#
# Disc length: 3970 seconds
#
# Revision: 1
# Processed by: cddbd v1.5.2PL0 Copyright (c) Steve Scherf et al.
# Submitted via: ExactAudioCopy v0.99pb4
#
DISCID=fb0f8012
DTITLE=Various Artist - The Hearth of Ireland
DYEAR=1999
DGENRE=Country
TTITLE0=Pal Of My Cradle Days - Ann Breen
TTITLE1=Sweet Sixteen - Pat Woods
TTITLE2=Eileen McMannus - susan McCann
TTITLE3=Fields Of Athenry - Brier
TTITLE4=Working Man - Kathy Duncan
TTITLE5=Town I Loved So Well - Blackthorn
TTITLE6=The Spinning Wheel - Margo
TTITLE7=Carrickfergus - Hugo Duncan
TTITLE8=Answer To Everything - Gloria
TTITLE9=Mary From Dungloe - Emmet Spiceland
TTITLE10=Galway Shawl - Margaret barry
TTITLE11=I'll Take You Home Again Kathleen - Josef Locke
TTITLE12=Connemara Cradle Song - Gloria Hunniford
TTITLE13=Irish Eyes - Ian Corrigan
TTITLE14=Sleivenamon - Rosemary Woods
TTITLE15=Danny Boy - Josef Locke
TTITLE16=Among My Souvenirs - Ann Breen
TTITLE17=Mountains Of Mourne - Pat Woods
EXTD=
EXTT0=Ann Breen
EXTT1=Pat Woods
EXTT2=Susan McCann
EXTT3=Brier
EXTT4=Kathy Durkin
EXTT5=Blackthorn
EXTT6=Margo
EXTT7=Hugo Duncan
EXTT8=Gloria
EXTT9=Emmet Spiceland
EXTT10=Margaret Barry
EXTT11=Josef Locke
EXTT12=Gloria Hunniford
EXTT13=Ian Corrigan
EXTT14=Rosemary Woods
EXTT15=Josef Locke
EXTT16=Ann Breen
EXTT17=Pat Woods
PLAYORDER=
